<svg width="256" height="256" viewBox="0 0 256 256" fill="none" xmlns="http://www.w3.org/2000/svg">
<path d="M16.9663 32.112H21.5503V48H18.3823V35.16H16.9663V32.112ZM25.9865 48C25.5865 48 25.2185 47.856 24.8825 47.568C24.5465 47.28 24.3785 46.888 24.3785 46.392C24.3785 45.944 24.5465 45.568 24.8825 45.264C25.2185 44.944 25.5865 44.784 25.9865 44.784C26.3545 44.784 26.7065 44.944 27.0425 45.264C27.3785 45.568 27.5465 45.944 27.5465 46.392C27.5465 46.888 27.3785 47.28 27.0425 47.568C26.7065 47.856 26.3545 48 25.9865 48Z" fill="#F47226"/>
<path d="M57.896 30.432V48H54.728V40.704H46.496V48H43.352V30.432H46.496V37.656H54.728V30.432H57.896ZM61.9948 37.656H65.0428V48H61.9948V37.656ZM61.9228 33.984C61.9228 33.536 62.0988 33.168 62.4508 32.88C62.8188 32.576 63.2108 32.424 63.6268 32.424C64.0428 32.424 64.4188 32.576 64.7548 32.88C65.1068 33.168 65.2828 33.536 65.2828 33.984C65.2828 34.448 65.1068 34.824 64.7548 35.112C64.4188 35.4 64.0428 35.544 63.6268 35.544C63.2108 35.544 62.8188 35.4 62.4508 35.112C62.0988 34.824 61.9228 34.448 61.9228 33.984ZM73.8836 53.184C73.0036 53.184 72.2516 53.08 71.6276 52.872C71.0036 52.664 70.4596 52.4 69.9956 52.08C69.5476 51.76 69.1396 51.448 68.7716 51.144L70.5716 49.056C70.9716 49.44 71.4196 49.776 71.9156 50.064C72.4276 50.368 73.0676 50.52 73.8356 50.52C74.7316 50.52 75.4756 50.296 76.0676 49.848C76.6756 49.416 76.9796 48.792 76.9796 47.976V45.576L77.1236 46.128C76.8516 46.704 76.3716 47.208 75.6836 47.64C74.9956 48.056 74.1076 48.264 73.0196 48.264C72.0756 48.264 71.2036 48.024 70.4036 47.544C69.6196 47.064 68.9876 46.416 68.5076 45.6C68.0436 44.768 67.8116 43.824 67.8116 42.768C67.8116 41.696 68.0596 40.744 68.5556 39.912C69.0676 39.064 69.7236 38.4 70.5236 37.92C71.3396 37.424 72.2036 37.176 73.1156 37.176C74.0276 37.176 74.8196 37.32 75.4916 37.608C76.1796 37.896 76.6916 38.256 77.0276 38.688L76.9076 39.024L77.2196 37.656H80.0276V48.024C80.0276 49.016 79.7556 49.896 79.2116 50.664C78.6676 51.448 77.9316 52.064 77.0036 52.512C76.0916 52.96 75.0516 53.184 73.8836 53.184ZM70.8836 42.696C70.8836 43.272 71.0116 43.8 71.2676 44.28C71.5396 44.744 71.9076 45.112 72.3716 45.384C72.8356 45.656 73.3556 45.792 73.9316 45.792C74.6676 45.792 75.2916 45.632 75.8036 45.312C76.3156 44.976 76.7076 44.52 76.9796 43.944V41.544C76.7556 40.968 76.3716 40.512 75.8276 40.176C75.2836 39.824 74.6516 39.648 73.9316 39.648C73.3556 39.648 72.8356 39.784 72.3716 40.056C71.9076 40.312 71.5396 40.672 71.2676 41.136C71.0116 41.584 70.8836 42.104 70.8836 42.696ZM83.5807 48V29.16H86.5807V39.84L86.5327 39.432C86.9007 38.776 87.4207 38.24 88.0927 37.824C88.7807 37.408 89.6047 37.2 90.5647 37.2C91.5407 37.2 92.3487 37.488 92.9887 38.064C93.6447 38.64 93.9807 39.384 93.9967 40.296V48H90.9487V41.4C90.9327 40.92 90.7967 40.536 90.5407 40.248C90.3007 39.944 89.8927 39.792 89.3167 39.792C88.5167 39.792 87.8687 40.152 87.3727 40.872C86.8767 41.592 86.6287 42.512 86.6287 43.632V48H83.5807ZM97.5494 29.16H100.597V48H97.5494V29.16ZM104.182 37.656H107.23V48H104.182V37.656ZM104.11 33.984C104.11 33.536 104.286 33.168 104.638 32.88C105.006 32.576 105.398 32.424 105.814 32.424C106.23 32.424 106.606 32.576 106.942 32.88C107.294 33.168 107.47 33.536 107.47 33.984C107.47 34.448 107.294 34.824 106.942 35.112C106.606 35.4 106.23 35.544 105.814 35.544C105.398 35.544 105.006 35.4 104.638 35.112C104.286 34.824 104.11 34.448 104.11 33.984ZM116.071 53.184C115.191 53.184 114.439 53.08 113.815 52.872C113.191 52.664 112.647 52.4 112.183 52.08C111.735 51.76 111.327 51.448 110.959 51.144L112.759 49.056C113.159 49.44 113.607 49.776 114.103 50.064C114.615 50.368 115.255 50.52 116.023 50.52C116.919 50.52 117.663 50.296 118.255 49.848C118.863 49.416 119.167 48.792 119.167 47.976V45.576L119.311 46.128C119.039 46.704 118.559 47.208 117.871 47.64C117.183 48.056 116.295 48.264 115.207 48.264C114.263 48.264 113.391 48.024 112.591 47.544C111.807 47.064 111.175 46.416 110.695 45.6C110.231 44.768 109.999 43.824 109.999 42.768C109.999 41.696 110.247 40.744 110.743 39.912C111.255 39.064 111.911 38.4 112.711 37.92C113.527 37.424 114.391 37.176 115.303 37.176C116.215 37.176 117.007 37.32 117.679 37.608C118.367 37.896 118.879 38.256 119.215 38.688L119.095 39.024L119.407 37.656H122.215V48.024C122.215 49.016 121.943 49.896 121.399 50.664C120.855 51.448 120.119 52.064 119.191 52.512C118.279 52.96 117.239 53.184 116.071 53.184ZM113.071 42.696C113.071 43.272 113.199 43.8 113.455 44.28C113.727 44.744 114.095 45.112 114.559 45.384C115.023 45.656 115.543 45.792 116.119 45.792C116.855 45.792 117.479 45.632 117.991 45.312C118.503 44.976 118.895 44.52 119.167 43.944V41.544C118.943 40.968 118.559 40.512 118.015 40.176C117.471 39.824 116.839 39.648 116.119 39.648C115.543 39.648 115.023 39.784 114.559 40.056C114.095 40.312 113.727 40.672 113.455 41.136C113.199 41.584 113.071 42.104 113.071 42.696ZM125.768 48V29.16H128.768V39.84L128.72 39.432C129.088 38.776 129.608 38.24 130.28 37.824C130.968 37.408 131.792 37.2 132.752 37.2C133.728 37.2 134.536 37.488 135.176 38.064C135.832 38.64 136.168 39.384 136.184 40.296V48H133.136V41.4C133.12 40.92 132.984 40.536 132.728 40.248C132.488 39.944 132.08 39.792 131.504 39.792C130.704 39.792 130.056 40.152 129.56 40.872C129.064 41.592 128.816 42.512 128.816 43.632V48H125.768ZM140.721 33.12H143.769V37.632H146.361V40.008H143.769V48H140.721V40.008H139.041V37.632H140.721V33.12ZM157.777 30.432C159.169 30.432 160.361 30.664 161.353 31.128C162.361 31.592 163.129 32.256 163.657 33.12C164.201 33.984 164.473 35.016 164.473 36.216C164.473 36.92 164.361 37.624 164.137 38.328C163.929 39.032 163.585 39.672 163.105 40.248C162.641 40.824 162.009 41.288 161.209 41.64C160.425 41.992 159.457 42.168 158.305 42.168H155.785V48H152.641V30.432H157.777ZM158.281 39.12C159.049 39.12 159.641 38.968 160.057 38.664C160.489 38.344 160.785 37.968 160.945 37.536C161.121 37.104 161.209 36.704 161.209 36.336C161.209 36.096 161.169 35.816 161.089 35.496C161.025 35.176 160.889 34.864 160.681 34.56C160.489 34.24 160.201 33.984 159.817 33.792C159.433 33.584 158.937 33.48 158.329 33.48H155.785V39.12H158.281ZM161.425 41.064L165.841 48H162.169L157.657 41.136L161.425 41.064ZM167.116 42.72C167.116 41.664 167.364 40.72 167.86 39.888C168.356 39.056 169.044 38.4 169.924 37.92C170.82 37.44 171.844 37.2 172.996 37.2C174.164 37.2 175.18 37.44 176.044 37.92C176.908 38.4 177.572 39.056 178.036 39.888C178.5 40.72 178.732 41.664 178.732 42.72C178.732 43.76 178.492 44.704 178.012 45.552C177.548 46.384 176.884 47.048 176.02 47.544C175.172 48.024 174.148 48.264 172.948 48.264C171.828 48.264 170.828 48.048 169.948 47.616C169.068 47.168 168.372 46.528 167.86 45.696C167.364 44.864 167.116 43.872 167.116 42.72ZM170.188 42.744C170.188 43.304 170.308 43.816 170.548 44.28C170.788 44.744 171.108 45.112 171.508 45.384C171.924 45.656 172.388 45.792 172.9 45.792C173.732 45.792 174.396 45.504 174.892 44.928C175.404 44.336 175.66 43.608 175.66 42.744C175.66 41.864 175.404 41.136 174.892 40.56C174.396 39.968 173.732 39.672 172.9 39.672C172.388 39.672 171.924 39.808 171.508 40.08C171.108 40.352 170.788 40.72 170.548 41.184C170.308 41.648 170.188 42.168 170.188 42.744ZM188.351 37.656L190.823 43.44L190.247 43.464L192.455 37.656H195.431L190.751 48.624L187.439 41.688L184.391 48.624L179.687 37.656H182.639L185.327 43.824L184.295 43.656L186.359 39L185.735 37.656H188.351Z" fill="#9DA1A5"/>
<rect width="256" height="36" transform="translate(0 66)" fill="#4488FF" fill-opacity="0.266667"/>
<path d="M11.4601 92C12.4521 90.992 13.4041 90.024 14.3161 89.096C15.2441 88.152 16.0681 87.24 16.7881 86.36C17.5241 85.48 18.1081 84.632 18.5401 83.816C18.9721 82.984 19.1881 82.176 19.1881 81.392C19.1881 80.864 19.0681 80.424 18.8281 80.072C18.6041 79.704 18.3001 79.432 17.9161 79.256C17.5321 79.064 17.0921 78.968 16.5961 78.968C16.0361 78.968 15.5721 79.072 15.2041 79.28C14.8361 79.488 14.5641 79.752 14.3881 80.072C14.2121 80.392 14.1241 80.712 14.1241 81.032C14.1241 81.544 14.2041 82 14.3641 82.4C14.5241 82.8 14.7561 83.152 15.0601 83.456L13.1161 85.232C12.6681 84.992 12.2921 84.624 11.9881 84.128C11.6841 83.616 11.4521 83.088 11.2921 82.544C11.1321 81.984 11.0521 81.504 11.0521 81.104C11.0521 80.224 11.2841 79.392 11.7481 78.608C12.2121 77.824 12.9001 77.184 13.8121 76.688C14.7241 76.176 15.8281 75.92 17.1241 75.92C18.1961 75.92 19.1321 76.168 19.9321 76.664C20.7321 77.144 21.3481 77.784 21.7801 78.584C22.2281 79.384 22.4521 80.24 22.4521 81.152C22.4521 82.128 22.2361 83.08 21.8041 84.008C21.3721 84.92 20.8121 85.816 20.1241 86.696C19.4361 87.576 18.7161 88.472 17.9641 89.384L16.5241 88.952H22.7401V92H11.4601ZM25.9865 92C25.5865 92 25.2185 91.856 24.8825 91.568C24.5465 91.28 24.3785 90.888 24.3785 90.392C24.3785 89.944 24.5465 89.568 24.8825 89.264C25.2185 88.944 25.5865 88.784 25.9865 88.784C26.3545 88.784 26.7065 88.944 27.0425 89.264C27.3785 89.568 27.5465 89.944 27.5465 90.392C27.5465 90.888 27.3785 91.28 27.0425 91.568C26.7065 91.856 26.3545 92 25.9865 92Z" fill="#F47226"/>
<path d="M57.896 74.432V92H54.728V84.704H46.496V92H43.352V74.432H46.496V81.656H54.728V74.432H57.896ZM61.9948 81.656H65.0428V92H61.9948V81.656ZM61.9228 77.984C61.9228 77.536 62.0988 77.168 62.4508 76.88C62.8188 76.576 63.2108 76.424 63.6268 76.424C64.0428 76.424 64.4188 76.576 64.7548 76.88C65.1068 77.168 65.2828 77.536 65.2828 77.984C65.2828 78.448 65.1068 78.824 64.7548 79.112C64.4188 79.4 64.0428 79.544 63.6268 79.544C63.2108 79.544 62.8188 79.4 62.4508 79.112C62.0988 78.824 61.9228 78.448 61.9228 77.984ZM73.8836 97.184C73.0036 97.184 72.2516 97.08 71.6276 96.872C71.0036 96.664 70.4596 96.4 69.9956 96.08C69.5476 95.76 69.1396 95.448 68.7716 95.144L70.5716 93.056C70.9716 93.44 71.4196 93.776 71.9156 94.064C72.4276 94.368 73.0676 94.52 73.8356 94.52C74.7316 94.52 75.4756 94.296 76.0676 93.848C76.6756 93.416 76.9796 92.792 76.9796 91.976V89.576L77.1236 90.128C76.8516 90.704 76.3716 91.208 75.6836 91.64C74.9956 92.056 74.1076 92.264 73.0196 92.264C72.0756 92.264 71.2036 92.024 70.4036 91.544C69.6196 91.064 68.9876 90.416 68.5076 89.6C68.0436 88.768 67.8116 87.824 67.8116 86.768C67.8116 85.696 68.0596 84.744 68.5556 83.912C69.0676 83.064 69.7236 82.4 70.5236 81.92C71.3396 81.424 72.2036 81.176 73.1156 81.176C74.0276 81.176 74.8196 81.32 75.4916 81.608C76.1796 81.896 76.6916 82.256 77.0276 82.688L76.9076 83.024L77.2196 81.656H80.0276V92.024C80.0276 93.016 79.7556 93.896 79.2116 94.664C78.6676 95.448 77.9316 96.064 77.0036 96.512C76.0916 96.96 75.0516 97.184 73.8836 97.184ZM70.8836 86.696C70.8836 87.272 71.0116 87.8 71.2676 88.28C71.5396 88.744 71.9076 89.112 72.3716 89.384C72.8356 89.656 73.3556 89.792 73.9316 89.792C74.6676 89.792 75.2916 89.632 75.8036 89.312C76.3156 88.976 76.7076 88.52 76.9796 87.944V85.544C76.7556 84.968 76.3716 84.512 75.8276 84.176C75.2836 83.824 74.6516 83.648 73.9316 83.648C73.3556 83.648 72.8356 83.784 72.3716 84.056C71.9076 84.312 71.5396 84.672 71.2676 85.136C71.0116 85.584 70.8836 86.104 70.8836 86.696ZM83.5807 92V73.16H86.5807V83.84L86.5327 83.432C86.9007 82.776 87.4207 82.24 88.0927 81.824C88.7807 81.408 89.6047 81.2 90.5647 81.2C91.5407 81.2 92.3487 81.488 92.9887 82.064C93.6447 82.64 93.9807 83.384 93.9967 84.296V92H90.9487V85.4C90.9327 84.92 90.7967 84.536 90.5407 84.248C90.3007 83.944 89.8927 83.792 89.3167 83.792C88.5167 83.792 87.8687 84.152 87.3727 84.872C86.8767 85.592 86.6287 86.512 86.6287 87.632V92H83.5807ZM97.5494 73.16H100.597V92H97.5494V73.16ZM104.182 81.656H107.23V92H104.182V81.656ZM104.11 77.984C104.11 77.536 104.286 77.168 104.638 76.88C105.006 76.576 105.398 76.424 105.814 76.424C106.23 76.424 106.606 76.576 106.942 76.88C107.294 77.168 107.47 77.536 107.47 77.984C107.47 78.448 107.294 78.824 106.942 79.112C106.606 79.4 106.23 79.544 105.814 79.544C105.398 79.544 105.006 79.4 104.638 79.112C104.286 78.824 104.11 78.448 104.11 77.984ZM116.071 97.184C115.191 97.184 114.439 97.08 113.815 96.872C113.191 96.664 112.647 96.4 112.183 96.08C111.735 95.76 111.327 95.448 110.959 95.144L112.759 93.056C113.159 93.44 113.607 93.776 114.103 94.064C114.615 94.368 115.255 94.52 116.023 94.52C116.919 94.52 117.663 94.296 118.255 93.848C118.863 93.416 119.167 92.792 119.167 91.976V89.576L119.311 90.128C119.039 90.704 118.559 91.208 117.871 91.64C117.183 92.056 116.295 92.264 115.207 92.264C114.263 92.264 113.391 92.024 112.591 91.544C111.807 91.064 111.175 90.416 110.695 89.6C110.231 88.768 109.999 87.824 109.999 86.768C109.999 85.696 110.247 84.744 110.743 83.912C111.255 83.064 111.911 82.4 112.711 81.92C113.527 81.424 114.391 81.176 115.303 81.176C116.215 81.176 117.007 81.32 117.679 81.608C118.367 81.896 118.879 82.256 119.215 82.688L119.095 83.024L119.407 81.656H122.215V92.024C122.215 93.016 121.943 93.896 121.399 94.664C120.855 95.448 120.119 96.064 119.191 96.512C118.279 96.96 117.239 97.184 116.071 97.184ZM113.071 86.696C113.071 87.272 113.199 87.8 113.455 88.28C113.727 88.744 114.095 89.112 114.559 89.384C115.023 89.656 115.543 89.792 116.119 89.792C116.855 89.792 117.479 89.632 117.991 89.312C118.503 88.976 118.895 88.52 119.167 87.944V85.544C118.943 84.968 118.559 84.512 118.015 84.176C117.471 83.824 116.839 83.648 116.119 83.648C115.543 83.648 115.023 83.784 114.559 84.056C114.095 84.312 113.727 84.672 113.455 85.136C113.199 85.584 113.071 86.104 113.071 86.696ZM125.768 92V73.16H128.768V83.84L128.72 83.432C129.088 82.776 129.608 82.24 130.28 81.824C130.968 81.408 131.792 81.2 132.752 81.2C133.728 81.2 134.536 81.488 135.176 82.064C135.832 82.64 136.168 83.384 136.184 84.296V92H133.136V85.4C133.12 84.92 132.984 84.536 132.728 84.248C132.488 83.944 132.08 83.792 131.504 83.792C130.704 83.792 130.056 84.152 129.56 84.872C129.064 85.592 128.816 86.512 128.816 87.632V92H125.768ZM140.721 77.12H143.769V81.632H146.361V84.008H143.769V92H140.721V84.008H139.041V81.632H140.721V77.12ZM157.777 74.432C159.169 74.432 160.361 74.664 161.353 75.128C162.361 75.592 163.129 76.256 163.657 77.12C164.201 77.984 164.473 79.016 164.473 80.216C164.473 80.92 164.361 81.624 164.137 82.328C163.929 83.032 163.585 83.672 163.105 84.248C162.641 84.824 162.009 85.288 161.209 85.64C160.425 85.992 159.457 86.168 158.305 86.168H155.785V92H152.641V74.432H157.777ZM158.281 83.12C159.049 83.12 159.641 82.968 160.057 82.664C160.489 82.344 160.785 81.968 160.945 81.536C161.121 81.104 161.209 80.704 161.209 80.336C161.209 80.096 161.169 79.816 161.089 79.496C161.025 79.176 160.889 78.864 160.681 78.56C160.489 78.24 160.201 77.984 159.817 77.792C159.433 77.584 158.937 77.48 158.329 77.48H155.785V83.12H158.281ZM161.425 85.064L165.841 92H162.169L157.657 85.136L161.425 85.064ZM167.116 86.72C167.116 85.664 167.364 84.72 167.86 83.888C168.356 83.056 169.044 82.4 169.924 81.92C170.82 81.44 171.844 81.2 172.996 81.2C174.164 81.2 175.18 81.44 176.044 81.92C176.908 82.4 177.572 83.056 178.036 83.888C178.5 84.72 178.732 85.664 178.732 86.72C178.732 87.76 178.492 88.704 178.012 89.552C177.548 90.384 176.884 91.048 176.02 91.544C175.172 92.024 174.148 92.264 172.948 92.264C171.828 92.264 170.828 92.048 169.948 91.616C169.068 91.168 168.372 90.528 167.86 89.696C167.364 88.864 167.116 87.872 167.116 86.72ZM170.188 86.744C170.188 87.304 170.308 87.816 170.548 88.28C170.788 88.744 171.108 89.112 171.508 89.384C171.924 89.656 172.388 89.792 172.9 89.792C173.732 89.792 174.396 89.504 174.892 88.928C175.404 88.336 175.66 87.608 175.66 86.744C175.66 85.864 175.404 85.136 174.892 84.56C174.396 83.968 173.732 83.672 172.9 83.672C172.388 83.672 171.924 83.808 171.508 84.08C171.108 84.352 170.788 84.72 170.548 85.184C170.308 85.648 170.188 86.168 170.188 86.744ZM188.351 81.656L190.823 87.44L190.247 87.464L192.455 81.656H195.431L190.751 92.624L187.439 85.688L184.391 92.624L179.687 81.656H182.639L185.327 87.824L184.295 87.656L186.359 83L185.735 81.656H188.351Z" fill="#9DA1A5"/>
<path d="M22.0897 120.112L18.2977 127L16.5457 126.064C16.9137 125.92 17.2977 125.848 17.6977 125.848C18.2737 125.832 18.8417 125.896 19.4017 126.04C19.9617 126.184 20.4657 126.44 20.9137 126.808C21.3777 127.176 21.7457 127.68 22.0177 128.32C22.2897 128.944 22.4257 129.744 22.4257 130.72C22.4257 131.856 22.1617 132.84 21.6337 133.672C21.1057 134.488 20.4097 135.112 19.5457 135.544C18.6977 135.976 17.7617 136.192 16.7377 136.192C15.9697 136.192 15.1617 136.032 14.3137 135.712C13.4817 135.376 12.8177 134.944 12.3217 134.416L13.9297 131.8C14.1857 132.12 14.5617 132.424 15.0577 132.712C15.5697 133 16.1057 133.144 16.6657 133.144C17.2897 133.144 17.8577 132.92 18.3697 132.472C18.8977 132.008 19.1617 131.36 19.1617 130.528C19.1617 129.76 18.9457 129.152 18.5137 128.704C18.0817 128.256 17.4817 128.032 16.7137 128.032C16.2337 128.032 15.8577 128.056 15.5857 128.104C15.3297 128.152 15.0817 128.216 14.8417 128.296L14.7457 128.2L17.8177 122.776L18.7537 123.16H13.5217V120.112H22.0897ZM25.9865 136C25.5865 136 25.2185 135.856 24.8825 135.568C24.5465 135.28 24.3785 134.888 24.3785 134.392C24.3785 133.944 24.5465 133.568 24.8825 133.264C25.2185 132.944 25.5865 132.784 25.9865 132.784C26.3545 132.784 26.7065 132.944 27.0425 133.264C27.3785 133.568 27.5465 133.944 27.5465 134.392C27.5465 134.888 27.3785 135.28 27.0425 135.568C26.7065 135.856 26.3545 136 25.9865 136Z" fill="#F47226"/>
<path d="M57.896 118.432V136H54.728V128.704H46.496V136H43.352V118.432H46.496V125.656H54.728V118.432H57.896ZM61.9948 125.656H65.0428V136H61.9948V125.656ZM61.9228 121.984C61.9228 121.536 62.0988 121.168 62.4508 120.88C62.8188 120.576 63.2108 120.424 63.6268 120.424C64.0428 120.424 64.4188 120.576 64.7548 120.88C65.1068 121.168 65.2828 121.536 65.2828 121.984C65.2828 122.448 65.1068 122.824 64.7548 123.112C64.4188 123.4 64.0428 123.544 63.6268 123.544C63.2108 123.544 62.8188 123.4 62.4508 123.112C62.0988 122.824 61.9228 122.448 61.9228 121.984ZM73.8836 141.184C73.0036 141.184 72.2516 141.08 71.6276 140.872C71.0036 140.664 70.4596 140.4 69.9956 140.08C69.5476 139.76 69.1396 139.448 68.7716 139.144L70.5716 137.056C70.9716 137.44 71.4196 137.776 71.9156 138.064C72.4276 138.368 73.0676 138.52 73.8356 138.52C74.7316 138.52 75.4756 138.296 76.0676 137.848C76.6756 137.416 76.9796 136.792 76.9796 135.976V133.576L77.1236 134.128C76.8516 134.704 76.3716 135.208 75.6836 135.64C74.9956 136.056 74.1076 136.264 73.0196 136.264C72.0756 136.264 71.2036 136.024 70.4036 135.544C69.6196 135.064 68.9876 134.416 68.5076 133.6C68.0436 132.768 67.8116 131.824 67.8116 130.768C67.8116 129.696 68.0596 128.744 68.5556 127.912C69.0676 127.064 69.7236 126.4 70.5236 125.92C71.3396 125.424 72.2036 125.176 73.1156 125.176C74.0276 125.176 74.8196 125.32 75.4916 125.608C76.1796 125.896 76.6916 126.256 77.0276 126.688L76.9076 127.024L77.2196 125.656H80.0276V136.024C80.0276 137.016 79.7556 137.896 79.2116 138.664C78.6676 139.448 77.9316 140.064 77.0036 140.512C76.0916 140.96 75.0516 141.184 73.8836 141.184ZM70.8836 130.696C70.8836 131.272 71.0116 131.8 71.2676 132.28C71.5396 132.744 71.9076 133.112 72.3716 133.384C72.8356 133.656 73.3556 133.792 73.9316 133.792C74.6676 133.792 75.2916 133.632 75.8036 133.312C76.3156 132.976 76.7076 132.52 76.9796 131.944V129.544C76.7556 128.968 76.3716 128.512 75.8276 128.176C75.2836 127.824 74.6516 127.648 73.9316 127.648C73.3556 127.648 72.8356 127.784 72.3716 128.056C71.9076 128.312 71.5396 128.672 71.2676 129.136C71.0116 129.584 70.8836 130.104 70.8836 130.696ZM83.5807 136V117.16H86.5807V127.84L86.5327 127.432C86.9007 126.776 87.4207 126.24 88.0927 125.824C88.7807 125.408 89.6047 125.2 90.5647 125.2C91.5407 125.2 92.3487 125.488 92.9887 126.064C93.6447 126.64 93.9807 127.384 93.9967 128.296V136H90.9487V129.4C90.9327 128.92 90.7967 128.536 90.5407 128.248C90.3007 127.944 89.8927 127.792 89.3167 127.792C88.5167 127.792 87.8687 128.152 87.3727 128.872C86.8767 129.592 86.6287 130.512 86.6287 131.632V136H83.5807ZM97.5494 117.16H100.597V136H97.5494V117.16ZM104.182 125.656H107.23V136H104.182V125.656ZM104.11 121.984C104.11 121.536 104.286 121.168 104.638 120.88C105.006 120.576 105.398 120.424 105.814 120.424C106.23 120.424 106.606 120.576 106.942 120.88C107.294 121.168 107.47 121.536 107.47 121.984C107.47 122.448 107.294 122.824 106.942 123.112C106.606 123.4 106.23 123.544 105.814 123.544C105.398 123.544 105.006 123.4 104.638 123.112C104.286 122.824 104.11 122.448 104.11 121.984ZM116.071 141.184C115.191 141.184 114.439 141.08 113.815 140.872C113.191 140.664 112.647 140.4 112.183 140.08C111.735 139.76 111.327 139.448 110.959 139.144L112.759 137.056C113.159 137.44 113.607 137.776 114.103 138.064C114.615 138.368 115.255 138.52 116.023 138.52C116.919 138.52 117.663 138.296 118.255 137.848C118.863 137.416 119.167 136.792 119.167 135.976V133.576L119.311 134.128C119.039 134.704 118.559 135.208 117.871 135.64C117.183 136.056 116.295 136.264 115.207 136.264C114.263 136.264 113.391 136.024 112.591 135.544C111.807 135.064 111.175 134.416 110.695 133.6C110.231 132.768 109.999 131.824 109.999 130.768C109.999 129.696 110.247 128.744 110.743 127.912C111.255 127.064 111.911 126.4 112.711 125.92C113.527 125.424 114.391 125.176 115.303 125.176C116.215 125.176 117.007 125.32 117.679 125.608C118.367 125.896 118.879 126.256 119.215 126.688L119.095 127.024L119.407 125.656H122.215V136.024C122.215 137.016 121.943 137.896 121.399 138.664C120.855 139.448 120.119 140.064 119.191 140.512C118.279 140.96 117.239 141.184 116.071 141.184ZM113.071 130.696C113.071 131.272 113.199 131.8 113.455 132.28C113.727 132.744 114.095 133.112 114.559 133.384C115.023 133.656 115.543 133.792 116.119 133.792C116.855 133.792 117.479 133.632 117.991 133.312C118.503 132.976 118.895 132.52 119.167 131.944V129.544C118.943 128.968 118.559 128.512 118.015 128.176C117.471 127.824 116.839 127.648 116.119 127.648C115.543 127.648 115.023 127.784 114.559 128.056C114.095 128.312 113.727 128.672 113.455 129.136C113.199 129.584 113.071 130.104 113.071 130.696ZM125.768 136V117.16H128.768V127.84L128.72 127.432C129.088 126.776 129.608 126.24 130.28 125.824C130.968 125.408 131.792 125.2 132.752 125.2C133.728 125.2 134.536 125.488 135.176 126.064C135.832 126.64 136.168 127.384 136.184 128.296V136H133.136V129.4C133.12 128.92 132.984 128.536 132.728 128.248C132.488 127.944 132.08 127.792 131.504 127.792C130.704 127.792 130.056 128.152 129.56 128.872C129.064 129.592 128.816 130.512 128.816 131.632V136H125.768ZM140.721 121.12H143.769V125.632H146.361V128.008H143.769V136H140.721V128.008H139.041V125.632H140.721V121.12ZM157.777 118.432C159.169 118.432 160.361 118.664 161.353 119.128C162.361 119.592 163.129 120.256 163.657 121.12C164.201 121.984 164.473 123.016 164.473 124.216C164.473 124.92 164.361 125.624 164.137 126.328C163.929 127.032 163.585 127.672 163.105 128.248C162.641 128.824 162.009 129.288 161.209 129.64C160.425 129.992 159.457 130.168 158.305 130.168H155.785V136H152.641V118.432H157.777ZM158.281 127.12C159.049 127.12 159.641 126.968 160.057 126.664C160.489 126.344 160.785 125.968 160.945 125.536C161.121 125.104 161.209 124.704 161.209 124.336C161.209 124.096 161.169 123.816 161.089 123.496C161.025 123.176 160.889 122.864 160.681 122.56C160.489 122.24 160.201 121.984 159.817 121.792C159.433 121.584 158.937 121.48 158.329 121.48H155.785V127.12H158.281ZM161.425 129.064L165.841 136H162.169L157.657 129.136L161.425 129.064ZM167.116 130.72C167.116 129.664 167.364 128.72 167.86 127.888C168.356 127.056 169.044 126.4 169.924 125.92C170.82 125.44 171.844 125.2 172.996 125.2C174.164 125.2 175.18 125.44 176.044 125.92C176.908 126.4 177.572 127.056 178.036 127.888C178.5 128.72 178.732 129.664 178.732 130.72C178.732 131.76 178.492 132.704 178.012 133.552C177.548 134.384 176.884 135.048 176.02 135.544C175.172 136.024 174.148 136.264 172.948 136.264C171.828 136.264 170.828 136.048 169.948 135.616C169.068 135.168 168.372 134.528 167.86 133.696C167.364 132.864 167.116 131.872 167.116 130.72ZM170.188 130.744C170.188 131.304 170.308 131.816 170.548 132.28C170.788 132.744 171.108 133.112 171.508 133.384C171.924 133.656 172.388 133.792 172.9 133.792C173.732 133.792 174.396 133.504 174.892 132.928C175.404 132.336 175.66 131.608 175.66 130.744C175.66 129.864 175.404 129.136 174.892 128.56C174.396 127.968 173.732 127.672 172.9 127.672C172.388 127.672 171.924 127.808 171.508 128.08C171.108 128.352 170.788 128.72 170.548 129.184C170.308 129.648 170.188 130.168 170.188 130.744ZM188.351 125.656L190.823 131.44L190.247 131.464L192.455 125.656H195.431L190.751 136.624L187.439 129.688L184.391 136.624L179.687 125.656H182.639L185.327 131.824L184.295 131.656L186.359 127L185.735 125.656H188.351Z" fill="#9DA1A5"/>
<rect width="256" height="36" transform="translate(0 154)" fill="#4488FF" fill-opacity="0.266667"/>
<path d="M11.0141 176.424V176.4L21.0221 163.92H21.0461V174.024H22.9901V176.424H21.0461V180H17.8541V176.424H11.0141ZM18.0221 170.904L15.5501 174.168L15.2141 174.024H17.8541V170.664L18.0221 170.904ZM25.9865 180C25.5865 180 25.2185 179.856 24.8825 179.568C24.5465 179.28 24.3785 178.888 24.3785 178.392C24.3785 177.944 24.5465 177.568 24.8825 177.264C25.2185 176.944 25.5865 176.784 25.9865 176.784C26.3545 176.784 26.7065 176.944 27.0425 177.264C27.3785 177.568 27.5465 177.944 27.5465 178.392C27.5465 178.888 27.3785 179.28 27.0425 179.568C26.7065 179.856 26.3545 180 25.9865 180Z" fill="#F47226"/>
<path d="M57.896 162.432V180H54.728V172.704H46.496V180H43.352V162.432H46.496V169.656H54.728V162.432H57.896ZM61.9948 169.656H65.0428V180H61.9948V169.656ZM61.9228 165.984C61.9228 165.536 62.0988 165.168 62.4508 164.88C62.8188 164.576 63.2108 164.424 63.6268 164.424C64.0428 164.424 64.4188 164.576 64.7548 164.88C65.1068 165.168 65.2828 165.536 65.2828 165.984C65.2828 166.448 65.1068 166.824 64.7548 167.112C64.4188 167.4 64.0428 167.544 63.6268 167.544C63.2108 167.544 62.8188 167.4 62.4508 167.112C62.0988 166.824 61.9228 166.448 61.9228 165.984ZM73.8836 185.184C73.0036 185.184 72.2516 185.08 71.6276 184.872C71.0036 184.664 70.4596 184.4 69.9956 184.08C69.5476 183.76 69.1396 183.448 68.7716 183.144L70.5716 181.056C70.9716 181.44 71.4196 181.776 71.9156 182.064C72.4276 182.368 73.0676 182.52 73.8356 182.52C74.7316 182.52 75.4756 182.296 76.0676 181.848C76.6756 181.416 76.9796 180.792 76.9796 179.976V177.576L77.1236 178.128C76.8516 178.704 76.3716 179.208 75.6836 179.64C74.9956 180.056 74.1076 180.264 73.0196 180.264C72.0756 180.264 71.2036 180.024 70.4036 179.544C69.6196 179.064 68.9876 178.416 68.5076 177.6C68.0436 176.768 67.8116 175.824 67.8116 174.768C67.8116 173.696 68.0596 172.744 68.5556 171.912C69.0676 171.064 69.7236 170.4 70.5236 169.92C71.3396 169.424 72.2036 169.176 73.1156 169.176C74.0276 169.176 74.8196 169.32 75.4916 169.608C76.1796 169.896 76.6916 170.256 77.0276 170.688L76.9076 171.024L77.2196 169.656H80.0276V180.024C80.0276 181.016 79.7556 181.896 79.2116 182.664C78.6676 183.448 77.9316 184.064 77.0036 184.512C76.0916 184.96 75.0516 185.184 73.8836 185.184ZM70.8836 174.696C70.8836 175.272 71.0116 175.8 71.2676 176.28C71.5396 176.744 71.9076 177.112 72.3716 177.384C72.8356 177.656 73.3556 177.792 73.9316 177.792C74.6676 177.792 75.2916 177.632 75.8036 177.312C76.3156 176.976 76.7076 176.52 76.9796 175.944V173.544C76.7556 172.968 76.3716 172.512 75.8276 172.176C75.2836 171.824 74.6516 171.648 73.9316 171.648C73.3556 171.648 72.8356 171.784 72.3716 172.056C71.9076 172.312 71.5396 172.672 71.2676 173.136C71.0116 173.584 70.8836 174.104 70.8836 174.696ZM83.5807 180V161.16H86.5807V171.84L86.5327 171.432C86.9007 170.776 87.4207 170.24 88.0927 169.824C88.7807 169.408 89.6047 169.2 90.5647 169.2C91.5407 169.2 92.3487 169.488 92.9887 170.064C93.6447 170.64 93.9807 171.384 93.9967 172.296V180H90.9487V173.4C90.9327 172.92 90.7967 172.536 90.5407 172.248C90.3007 171.944 89.8927 171.792 89.3167 171.792C88.5167 171.792 87.8687 172.152 87.3727 172.872C86.8767 173.592 86.6287 174.512 86.6287 175.632V180H83.5807ZM97.5494 161.16H100.597V180H97.5494V161.16ZM104.182 169.656H107.23V180H104.182V169.656ZM104.11 165.984C104.11 165.536 104.286 165.168 104.638 164.88C105.006 164.576 105.398 164.424 105.814 164.424C106.23 164.424 106.606 164.576 106.942 164.88C107.294 165.168 107.47 165.536 107.47 165.984C107.47 166.448 107.294 166.824 106.942 167.112C106.606 167.4 106.23 167.544 105.814 167.544C105.398 167.544 105.006 167.4 104.638 167.112C104.286 166.824 104.11 166.448 104.11 165.984ZM116.071 185.184C115.191 185.184 114.439 185.08 113.815 184.872C113.191 184.664 112.647 184.4 112.183 184.08C111.735 183.76 111.327 183.448 110.959 183.144L112.759 181.056C113.159 181.44 113.607 181.776 114.103 182.064C114.615 182.368 115.255 182.52 116.023 182.52C116.919 182.52 117.663 182.296 118.255 181.848C118.863 181.416 119.167 180.792 119.167 179.976V177.576L119.311 178.128C119.039 178.704 118.559 179.208 117.871 179.64C117.183 180.056 116.295 180.264 115.207 180.264C114.263 180.264 113.391 180.024 112.591 179.544C111.807 179.064 111.175 178.416 110.695 177.6C110.231 176.768 109.999 175.824 109.999 174.768C109.999 173.696 110.247 172.744 110.743 171.912C111.255 171.064 111.911 170.4 112.711 169.92C113.527 169.424 114.391 169.176 115.303 169.176C116.215 169.176 117.007 169.32 117.679 169.608C118.367 169.896 118.879 170.256 119.215 170.688L119.095 171.024L119.407 169.656H122.215V180.024C122.215 181.016 121.943 181.896 121.399 182.664C120.855 183.448 120.119 184.064 119.191 184.512C118.279 184.96 117.239 185.184 116.071 185.184ZM113.071 174.696C113.071 175.272 113.199 175.8 113.455 176.28C113.727 176.744 114.095 177.112 114.559 177.384C115.023 177.656 115.543 177.792 116.119 177.792C116.855 177.792 117.479 177.632 117.991 177.312C118.503 176.976 118.895 176.52 119.167 175.944V173.544C118.943 172.968 118.559 172.512 118.015 172.176C117.471 171.824 116.839 171.648 116.119 171.648C115.543 171.648 115.023 171.784 114.559 172.056C114.095 172.312 113.727 172.672 113.455 173.136C113.199 173.584 113.071 174.104 113.071 174.696ZM125.768 180V161.16H128.768V171.84L128.72 171.432C129.088 170.776 129.608 170.24 130.28 169.824C130.968 169.408 131.792 169.2 132.752 169.2C133.728 169.2 134.536 169.488 135.176 170.064C135.832 170.64 136.168 171.384 136.184 172.296V180H133.136V173.4C133.12 172.92 132.984 172.536 132.728 172.248C132.488 171.944 132.08 171.792 131.504 171.792C130.704 171.792 130.056 172.152 129.56 172.872C129.064 173.592 128.816 174.512 128.816 175.632V180H125.768ZM140.721 165.12H143.769V169.632H146.361V172.008H143.769V180H140.721V172.008H139.041V169.632H140.721V165.12ZM157.777 162.432C159.169 162.432 160.361 162.664 161.353 163.128C162.361 163.592 163.129 164.256 163.657 165.12C164.201 165.984 164.473 167.016 164.473 168.216C164.473 168.92 164.361 169.624 164.137 170.328C163.929 171.032 163.585 171.672 163.105 172.248C162.641 172.824 162.009 173.288 161.209 173.64C160.425 173.992 159.457 174.168 158.305 174.168H155.785V180H152.641V162.432H157.777ZM158.281 171.12C159.049 171.12 159.641 170.968 160.057 170.664C160.489 170.344 160.785 169.968 160.945 169.536C161.121 169.104 161.209 168.704 161.209 168.336C161.209 168.096 161.169 167.816 161.089 167.496C161.025 167.176 160.889 166.864 160.681 166.56C160.489 166.24 160.201 165.984 159.817 165.792C159.433 165.584 158.937 165.48 158.329 165.48H155.785V171.12H158.281ZM161.425 173.064L165.841 180H162.169L157.657 173.136L161.425 173.064ZM167.116 174.72C167.116 173.664 167.364 172.72 167.86 171.888C168.356 171.056 169.044 170.4 169.924 169.92C170.82 169.44 171.844 169.2 172.996 169.2C174.164 169.2 175.18 169.44 176.044 169.92C176.908 170.4 177.572 171.056 178.036 171.888C178.5 172.72 178.732 173.664 178.732 174.72C178.732 175.76 178.492 176.704 178.012 177.552C177.548 178.384 176.884 179.048 176.02 179.544C175.172 180.024 174.148 180.264 172.948 180.264C171.828 180.264 170.828 180.048 169.948 179.616C169.068 179.168 168.372 178.528 167.86 177.696C167.364 176.864 167.116 175.872 167.116 174.72ZM170.188 174.744C170.188 175.304 170.308 175.816 170.548 176.28C170.788 176.744 171.108 177.112 171.508 177.384C171.924 177.656 172.388 177.792 172.9 177.792C173.732 177.792 174.396 177.504 174.892 176.928C175.404 176.336 175.66 175.608 175.66 174.744C175.66 173.864 175.404 173.136 174.892 172.56C174.396 171.968 173.732 171.672 172.9 171.672C172.388 171.672 171.924 171.808 171.508 172.08C171.108 172.352 170.788 172.72 170.548 173.184C170.308 173.648 170.188 174.168 170.188 174.744ZM188.351 169.656L190.823 175.44L190.247 175.464L192.455 169.656H195.431L190.751 180.624L187.439 173.688L184.391 180.624L179.687 169.656H182.639L185.327 175.824L184.295 175.656L186.359 171L185.735 169.656H188.351Z" fill="#9DA1A5"/>
<path d="M17.2852 224.192C16.3732 224.192 15.4852 224.024 14.6212 223.688C13.7572 223.336 13.0772 222.92 12.5812 222.44L14.2132 219.92C14.5172 220.272 14.9332 220.568 15.4612 220.808C16.0052 221.032 16.5332 221.144 17.0452 221.144C17.6852 221.144 18.2292 220.936 18.6772 220.52C19.1412 220.104 19.3732 219.52 19.3732 218.768C19.3732 217.952 19.1412 217.288 18.6772 216.776C18.2132 216.248 17.5572 215.984 16.7092 215.984C16.1972 215.984 15.7092 216.056 15.2452 216.2C14.7972 216.344 14.2852 216.576 13.7092 216.896H13.6852V208.112H21.5092V211.16H16.4212V214.136L16.0372 213.488C16.2772 213.44 16.5172 213.408 16.7572 213.392C16.9972 213.36 17.2372 213.344 17.4772 213.344C18.5812 213.344 19.5172 213.592 20.2852 214.088C21.0532 214.568 21.6372 215.216 22.0372 216.032C22.4372 216.832 22.6372 217.704 22.6372 218.648C22.6372 219.688 22.3972 220.632 21.9172 221.48C21.4532 222.312 20.8132 222.976 19.9972 223.472C19.1972 223.952 18.2932 224.192 17.2852 224.192ZM25.9865 224C25.5865 224 25.2185 223.856 24.8825 223.568C24.5465 223.28 24.3785 222.888 24.3785 222.392C24.3785 221.944 24.5465 221.568 24.8825 221.264C25.2185 220.944 25.5865 220.784 25.9865 220.784C26.3545 220.784 26.7065 220.944 27.0425 221.264C27.3785 221.568 27.5465 221.944 27.5465 222.392C27.5465 222.888 27.3785 223.28 27.0425 223.568C26.7065 223.856 26.3545 224 25.9865 224Z" fill="#F47226"/>
<path d="M57.896 206.432V224H54.728V216.704H46.496V224H43.352V206.432H46.496V213.656H54.728V206.432H57.896ZM61.9948 213.656H65.0428V224H61.9948V213.656ZM61.9228 209.984C61.9228 209.536 62.0988 209.168 62.4508 208.88C62.8188 208.576 63.2108 208.424 63.6268 208.424C64.0428 208.424 64.4188 208.576 64.7548 208.88C65.1068 209.168 65.2828 209.536 65.2828 209.984C65.2828 210.448 65.1068 210.824 64.7548 211.112C64.4188 211.4 64.0428 211.544 63.6268 211.544C63.2108 211.544 62.8188 211.4 62.4508 211.112C62.0988 210.824 61.9228 210.448 61.9228 209.984ZM73.8836 229.184C73.0036 229.184 72.2516 229.08 71.6276 228.872C71.0036 228.664 70.4596 228.4 69.9956 228.08C69.5476 227.76 69.1396 227.448 68.7716 227.144L70.5716 225.056C70.9716 225.44 71.4196 225.776 71.9156 226.064C72.4276 226.368 73.0676 226.52 73.8356 226.52C74.7316 226.52 75.4756 226.296 76.0676 225.848C76.6756 225.416 76.9796 224.792 76.9796 223.976V221.576L77.1236 222.128C76.8516 222.704 76.3716 223.208 75.6836 223.64C74.9956 224.056 74.1076 224.264 73.0196 224.264C72.0756 224.264 71.2036 224.024 70.4036 223.544C69.6196 223.064 68.9876 222.416 68.5076 221.6C68.0436 220.768 67.8116 219.824 67.8116 218.768C67.8116 217.696 68.0596 216.744 68.5556 215.912C69.0676 215.064 69.7236 214.4 70.5236 213.92C71.3396 213.424 72.2036 213.176 73.1156 213.176C74.0276 213.176 74.8196 213.32 75.4916 213.608C76.1796 213.896 76.6916 214.256 77.0276 214.688L76.9076 215.024L77.2196 213.656H80.0276V224.024C80.0276 225.016 79.7556 225.896 79.2116 226.664C78.6676 227.448 77.9316 228.064 77.0036 228.512C76.0916 228.96 75.0516 229.184 73.8836 229.184ZM70.8836 218.696C70.8836 219.272 71.0116 219.8 71.2676 220.28C71.5396 220.744 71.9076 221.112 72.3716 221.384C72.8356 221.656 73.3556 221.792 73.9316 221.792C74.6676 221.792 75.2916 221.632 75.8036 221.312C76.3156 220.976 76.7076 220.52 76.9796 219.944V217.544C76.7556 216.968 76.3716 216.512 75.8276 216.176C75.2836 215.824 74.6516 215.648 73.9316 215.648C73.3556 215.648 72.8356 215.784 72.3716 216.056C71.9076 216.312 71.5396 216.672 71.2676 217.136C71.0116 217.584 70.8836 218.104 70.8836 218.696ZM83.5807 224V205.16H86.5807V215.84L86.5327 215.432C86.9007 214.776 87.4207 214.24 88.0927 213.824C88.7807 213.408 89.6047 213.2 90.5647 213.2C91.5407 213.2 92.3487 213.488 92.9887 214.064C93.6447 214.64 93.9807 215.384 93.9967 216.296V224H90.9487V217.4C90.9327 216.92 90.7967 216.536 90.5407 216.248C90.3007 215.944 89.8927 215.792 89.3167 215.792C88.5167 215.792 87.8687 216.152 87.3727 216.872C86.8767 217.592 86.6287 218.512 86.6287 219.632V224H83.5807ZM97.5494 205.16H100.597V224H97.5494V205.16ZM104.182 213.656H107.23V224H104.182V213.656ZM104.11 209.984C104.11 209.536 104.286 209.168 104.638 208.88C105.006 208.576 105.398 208.424 105.814 208.424C106.23 208.424 106.606 208.576 106.942 208.88C107.294 209.168 107.47 209.536 107.47 209.984C107.47 210.448 107.294 210.824 106.942 211.112C106.606 211.4 106.23 211.544 105.814 211.544C105.398 211.544 105.006 211.4 104.638 211.112C104.286 210.824 104.11 210.448 104.11 209.984ZM116.071 229.184C115.191 229.184 114.439 229.08 113.815 228.872C113.191 228.664 112.647 228.4 112.183 228.08C111.735 227.76 111.327 227.448 110.959 227.144L112.759 225.056C113.159 225.44 113.607 225.776 114.103 226.064C114.615 226.368 115.255 226.52 116.023 226.52C116.919 226.52 117.663 226.296 118.255 225.848C118.863 225.416 119.167 224.792 119.167 223.976V221.576L119.311 222.128C119.039 222.704 118.559 223.208 117.871 223.64C117.183 224.056 116.295 224.264 115.207 224.264C114.263 224.264 113.391 224.024 112.591 223.544C111.807 223.064 111.175 222.416 110.695 221.6C110.231 220.768 109.999 219.824 109.999 218.768C109.999 217.696 110.247 216.744 110.743 215.912C111.255 215.064 111.911 214.4 112.711 213.92C113.527 213.424 114.391 213.176 115.303 213.176C116.215 213.176 117.007 213.32 117.679 213.608C118.367 213.896 118.879 214.256 119.215 214.688L119.095 215.024L119.407 213.656H122.215V224.024C122.215 225.016 121.943 225.896 121.399 226.664C120.855 227.448 120.119 228.064 119.191 228.512C118.279 228.96 117.239 229.184 116.071 229.184ZM113.071 218.696C113.071 219.272 113.199 219.8 113.455 220.28C113.727 220.744 114.095 221.112 114.559 221.384C115.023 221.656 115.543 221.792 116.119 221.792C116.855 221.792 117.479 221.632 117.991 221.312C118.503 220.976 118.895 220.52 119.167 219.944V217.544C118.943 216.968 118.559 216.512 118.015 216.176C117.471 215.824 116.839 215.648 116.119 215.648C115.543 215.648 115.023 215.784 114.559 216.056C114.095 216.312 113.727 216.672 113.455 217.136C113.199 217.584 113.071 218.104 113.071 218.696ZM125.768 224V205.16H128.768V215.84L128.72 215.432C129.088 214.776 129.608 214.24 130.28 213.824C130.968 213.408 131.792 213.2 132.752 213.2C133.728 213.2 134.536 213.488 135.176 214.064C135.832 214.64 136.168 215.384 136.184 216.296V224H133.136V217.4C133.12 216.92 132.984 216.536 132.728 216.248C132.488 215.944 132.08 215.792 131.504 215.792C130.704 215.792 130.056 216.152 129.56 216.872C129.064 217.592 128.816 218.512 128.816 219.632V224H125.768ZM140.721 209.12H143.769V213.632H146.361V216.008H143.769V224H140.721V216.008H139.041V213.632H140.721V209.12ZM157.777 206.432C159.169 206.432 160.361 206.664 161.353 207.128C162.361 207.592 163.129 208.256 163.657 209.12C164.201 209.984 164.473 211.016 164.473 212.216C164.473 212.92 164.361 213.624 164.137 214.328C163.929 215.032 163.585 215.672 163.105 216.248C162.641 216.824 162.009 217.288 161.209 217.64C160.425 217.992 159.457 218.168 158.305 218.168H155.785V224H152.641V206.432H157.777ZM158.281 215.12C159.049 215.12 159.641 214.968 160.057 214.664C160.489 214.344 160.785 213.968 160.945 213.536C161.121 213.104 161.209 212.704 161.209 212.336C161.209 212.096 161.169 211.816 161.089 211.496C161.025 211.176 160.889 210.864 160.681 210.56C160.489 210.24 160.201 209.984 159.817 209.792C159.433 209.584 158.937 209.48 158.329 209.48H155.785V215.12H158.281ZM161.425 217.064L165.841 224H162.169L157.657 217.136L161.425 217.064ZM167.116 218.72C167.116 217.664 167.364 216.72 167.86 215.888C168.356 215.056 169.044 214.4 169.924 213.92C170.82 213.44 171.844 213.2 172.996 213.2C174.164 213.2 175.18 213.44 176.044 213.92C176.908 214.4 177.572 215.056 178.036 215.888C178.5 216.72 178.732 217.664 178.732 218.72C178.732 219.76 178.492 220.704 178.012 221.552C177.548 222.384 176.884 223.048 176.02 223.544C175.172 224.024 174.148 224.264 172.948 224.264C171.828 224.264 170.828 224.048 169.948 223.616C169.068 223.168 168.372 222.528 167.86 221.696C167.364 220.864 167.116 219.872 167.116 218.72ZM170.188 218.744C170.188 219.304 170.308 219.816 170.548 220.28C170.788 220.744 171.108 221.112 171.508 221.384C171.924 221.656 172.388 221.792 172.9 221.792C173.732 221.792 174.396 221.504 174.892 220.928C175.404 220.336 175.66 219.608 175.66 218.744C175.66 217.864 175.404 217.136 174.892 216.56C174.396 215.968 173.732 215.672 172.9 215.672C172.388 215.672 171.924 215.808 171.508 216.08C171.108 216.352 170.788 216.72 170.548 217.184C170.308 217.648 170.188 218.168 170.188 218.744ZM188.351 213.656L190.823 219.44L190.247 219.464L192.455 213.656H195.431L190.751 224.624L187.439 217.688L184.391 224.624L179.687 213.656H182.639L185.327 219.824L184.295 219.656L186.359 215L185.735 213.656H188.351Z" fill="#9DA1A5"/>
<path d="M214 66H220V68H218V100H220V102H214V100H216V68H214V66Z" fill="white"/>
<path d="M214 154H220V156H218V188H220V190H214V188H216V156H214V154Z" fill="black"/>
</svg>
